<?xml version="1.0" encoding="utf-8"?>
<!-- Generator: Adobe Illustrator 21.1.0, SVG Export Plug-In . SVG Version: 6.00 Build 0)  -->
<svg version="1.1" id="Layer_1" xmlns="http://www.w3.org/2000/svg" xmlns:xlink="http://www.w3.org/1999/xlink" x="0px" y="0px"
	 viewBox="0 0 1000 200.6" style="enable-background:new 0 0 1000 200.6;" xml:space="preserve">
<style type="text/css">
	.st0{fill:#FFFFFF;}
</style>
<g>
	<path class="st0" d="M20.4,172.1h20V28.3h-20V7.8h112.9c20.5,0,29.9,1.3,42,6.1c16.4,6.4,26.1,20.5,26.1,37.9
		c0,15.6-7.9,27.9-21.2,34c-11.8,5.4-17.2,6.7-42.5,8.7c4.9,1.5,9,2.3,11.3,2.8c17.2,4.1,22.8,6.4,30.5,12.3
		c9.7,6.9,14.6,17.7,16.9,36.1l1,9.7c1.3,7.4,0.1,19.3,7,19.8c5,0.4,4.2,0.3,12,0.4v16.6c-12.6,0-15.2,0-16.7,0
		c-11.6,0.1-8,0-19.3,0c-11.8,0-22.8-3.3-29.5-10.2c-8.2-8.2-12.5-22.5-13.1-41c-0.3-15.6-0.8-19.2-4.6-25.9
		c-4.6-7.2-11.5-10.2-25.6-10.2H95.5v67.1h20.5v20.2H20.4V172.1z M95.7,85.1h17.2c12.3,0,14.6-0.8,21.2-5.6c4.1-2.8,7.4-6.7,9.2-11
		c1.3-3.6,2-8.4,2-13.1c0-19.2-9-27.1-30.7-27.1H95.7V85.1z"/>
	<path class="st0" d="M216.4,175.7H231V24.4h-14.6V7.8h59.4v68.1c10.8-7.9,14.1-10.2,18.2-12.8c9.2-5.4,18.4-8.2,26.9-8.2
		c22.5,0,36.3,15.6,36.3,41.5v79.4H370v16.6h-57.9v-84.5c0-17.2-3.6-23.3-13.3-23.3c-6.4,0-12.5,3.1-23,12v79.1h12.5v16.6h-71.9
		V175.7z"/>
	<path class="st0" d="M430.9,53.3c37.9,0,66.8,31,66.8,71.4c0,40.2-28.9,71.2-66.8,71.2c-37.6,0-66.8-31-66.8-71.2
		C364,84.3,393.2,53.3,430.9,53.3z M411.9,124.8c0.3,9,0.3,15.9,0.3,20.2v5.6c0,15.9,0.5,20.5,4.4,24.6c2.6,3.6,9.2,6.4,14.3,6.4
		c5.1,0,11.5-2.8,14.6-6.4c2-2.8,3.3-6.4,3.6-10.2c0.3-2.8,0.3-9.5,0.5-20v-20.2v-20.5c-0.3-10.5-0.3-17.2-0.5-20
		c-0.3-3.8-1.5-7.4-3.6-10.2c-3.1-3.6-9.5-6.1-14.6-6.1c-5.1,0-11.8,2.6-14.3,6.1c-3.8,4.6-4.4,9-4.4,24.8v5.4
		C412.2,108.9,412.2,115.8,411.9,124.8z"/>
	<path class="st0" d="M576.5,90.2c0-9-0.8-11.5-4.9-16.1c-3.8-4.6-10.2-6.9-17.7-6.9c-4.6,0-6.9,1-11.3,4.4c3.3,4.9,4.9,9,4.9,14.8
		c0,12.3-9,20.5-21.2,20.5c-12,0-22-9.5-22-20.7c0-7.9,4.9-15.4,13.8-22c3.8-2.6,7.4-4.6,11-5.9c7.4-2.8,20.5-4.9,33.5-4.9
		c18.9,0,32.8,3.8,41.7,11.8c9,7.2,14.8,19.5,14.8,31v57.9l0.3,6.1c0,3.1,0.3,4.9,0.3,5.1c0.3,3.8,3.8,7.2,7.4,7.2
		c1.8,0,3.6-0.5,6.4-1.8l2.6-1.5l7.2,9c-2.3,2-3.6,3.8-4.9,4.6c-7.2,6.7-20.5,11.3-31,11.3c-4.9,0-10.2-1-14.8-3.1
		c-6.9-3.3-9.5-6.1-12.8-14.8c-11.5,10.2-17.2,13.3-27.9,16.4c-4.9,1.3-10,2-14.8,2c-23.8,0-39.4-13.6-39.4-34.3
		c0-10.8,3.3-18.2,11.8-25.9c8.2-7.4,20.5-13.1,41.7-19.5c10.2-2.8,15.4-4.4,16.1-4.6c2-0.5,5.1-1.8,9.2-3.3V90.2z M575.9,123.5
		c-9.5,1.5-18.9,5.1-23.8,8.4c-6.9,4.9-11,12.5-11,20.5c0,10.8,6.1,17.9,15.9,17.9c6.1,0,13.1-3.3,16.4-7.9c2.3-3.1,2.6-5.1,2.6-12
		V123.5z"/>
	<path class="st0" d="M718.9,24.4h-14.8V7.8h59.4v167.9h14.8v16.6h-59.6v-13.8c-2,2.6-3.6,4.4-4.9,5.6c-6.7,6.1-19.2,11-29.2,11
		c-29.7,0-51.7-28.9-51.7-68.3c0-40.7,24.8-72.4,56.8-72.4c6.1,0,12,1.3,17.7,3.8c5.1,2.3,7.4,4.6,11.5,10.8V24.4z M718.7,156V96.1
		c0-10.8-8.4-20-18.9-20c-9,0-13.8,4.6-15.4,14.6c-0.5,4.9-0.8,10.2-1,17.2l-0.3,15.9v12c0,11,0,15.1,0.5,21.8
		c0.8,10.8,5.1,15.4,13.6,15.4c6.4,0,14.3-4.1,17.9-9.2C716.4,161.9,717.4,159.3,718.7,156z"/>
	<path class="st0" d="M785.5,175.7h14.6V74.1h-14.6V57.7h58.1v118h13.8v16.6h-71.9V175.7z M821.4,4.2c14.3,0,25.9,9.5,25.9,21
		c0,11.3-11.8,20.5-25.9,20.5c-14.3,0-26.1-9.5-26.1-20.7C795.3,13.7,807,4.2,821.4,4.2z"/>
	<path class="st0" d="M902,128.6c-0.3,5.4-0.3,9.7-0.3,13.3c0,26.1,6.1,34.6,24.8,34.6c3.8,0,8.2-0.5,11.8-1.5
		c3.3-1,6.7-2.6,10.5-4.4c7.2-4.4,10.2-6.7,17.2-14.6l11,10c-8.2,11.3-12.3,15.1-21,20.5c-11,6.7-23,10-35.6,10
		c-38.4,0-65.8-29.2-65.8-70.1c0-39.7,28.9-70.7,65.5-70.7c20.5,0,39.2,10.5,49.7,28.2c7.4,12.8,9.5,22,9.7,44.8H902z M902.2,110.2
		h36.3c0-4.1,0.3-7.7,0.3-10.8c0-20.2-5.9-30.2-17.9-30.2C907.1,69.2,903.3,77.1,902.2,110.2z"/>
</g>
</svg>
